<?xml version="1.0" standalone="no"?>
<!DOCTYPE svg PUBLIC "-//W3C//DTD SVG 20010904//EN"
 "http://www.w3.org/TR/2001/REC-SVG-20010904/DTD/svg10.dtd">
<svg version="1.0" xmlns="http://www.w3.org/2000/svg"
 width="152.000000pt" height="152.000000pt" viewBox="0 0 152.000000 152.000000"
 preserveAspectRatio="xMidYMid meet">
<metadata>
Created by potrace 1.11, written by Peter Selinger 2001-2013
</metadata>
<g transform="translate(0.000000,152.000000) scale(0.100000,-0.100000)"
fill="#000000" stroke="none">
<path d="M495 1293 c-11 -3 -70 -27 -132 -53 -118 -52 -229 -80 -314 -80 l-51
0 8 -82 c4 -46 7 -258 7 -472 l-1 -389 76 6 c371 31 975 33 1285 6 75 -7 139
-10 141 -8 2 2 0 90 -5 194 -6 105 -13 318 -17 475 l-7 285 -78 7 c-53 5 -125
23 -230 59 -129 45 -163 53 -228 53 -68 1 -84 -3 -145 -34 l-69 -35 -62 33
c-61 32 -135 47 -178 35z m121 -64 c12 -4 38 -22 58 -39 l36 -32 0 -379 c0
-208 -2 -379 -3 -379 -2 0 -19 8 -38 18 -52 26 -165 22 -259 -10 -41 -14 -120
-42 -175 -61 -55 -19 -117 -37 -138 -40 l-37 -6 2 401 3 402 70 11 c39 7 131
36 205 65 184 73 204 77 276 49z m513 -33 c75 -30 163 -59 196 -66 33 -6 70
-14 83 -16 l22 -4 0 -401 0 -401 -37 7 c-41 7 -152 43 -298 95 -108 39 -228
46 -281 17 l-32 -16 -4 372 -4 372 25 29 c76 85 138 88 330 12z"/>
</g>
</svg>
